<?xml version="1.0" standalone="no"?>
<!DOCTYPE svg PUBLIC "-//W3C//DTD SVG 20010904//EN"
 "http://www.w3.org/TR/2001/REC-SVG-20010904/DTD/svg10.dtd">
<svg version="1.0" xmlns="http://www.w3.org/2000/svg"
 width="3508.000000pt" height="3508.000000pt" viewBox="0 0 3508.000000 3508.000000"
 preserveAspectRatio="xMidYMid meet">

<g transform="translate(0.000000,3508.000000) scale(0.100000,-0.100000)"
fill="#000000" stroke="none">
<path d="M15444 24650 c-1359 -63 -2472 -474 -3379 -1249 -229 -195 -512 -491
-717 -749 -926 -1167 -1388 -2646 -1388 -4446 0 -1966 446 -3553 1313 -4675
145 -188 250 -305 436 -491 787 -785 1770 -1271 2902 -1435 284 -41 486 -56
819 -62 1720 -31 3106 504 4111 1590 735 793 1190 1714 1399 2834 17 93 69
440 70 466 0 4 -371 7 -824 7 l-824 0 -22 -97 c-224 -1004 -549 -1704 -1055
-2273 -378 -426 -907 -753 -1465 -906 -327 -90 -575 -123 -975 -131 -416 -8
-736 17 -1065 83 -1145 229 -1945 858 -2502 1968 -336 671 -522 1426 -579
2353 -16 260 -6 1071 15 1328 119 1408 462 2384 1095 3120 698 810 1652 1255
2776 1294 1101 37 1958 -200 2555 -707 505 -430 860 -1009 1059 -1726 l47
-171 822 -3 c714 -2 822 0 822 12 0 8 -7 68 -15 133 -104 800 -420 1520 -957
2177 -215 263 -506 556 -733 738 -739 594 -1700 929 -2885 1008 -220 14 -653
19 -856 10z"/>
<path d="M865 24308 c-3 -7 -4 -2810 -3 -6228 l3 -6215 3998 -3 3997 -2 0 745
0 745 -3150 0 -3150 0 -2 5483 -3 5482 -843 3 c-669 2 -844 0 -847 -10z"/>
<path d="M23267 24314 c-4 -4 -7 -2808 -7 -6231 l0 -6223 845 0 845 0 0 2670
0 2671 2158 -4 c1933 -3 2173 -5 2312 -20 639 -69 965 -188 1252 -456 299
-280 480 -700 528 -1226 6 -66 35 -631 65 -1255 58 -1189 76 -1503 101 -1735
25 -228 66 -404 136 -573 l30 -72 1036 2 1037 3 3 136 3 136 -78 46 c-309 181
-478 545 -547 1182 -25 235 -35 432 -71 1445 -19 536 -42 1047 -50 1135 -45
466 -126 787 -271 1066 -192 369 -602 708 -1136 939 l-77 33 107 59 c203 113
412 258 587 409 100 86 294 282 372 374 412 492 615 1037 674 1805 13 173 7
633 -11 795 -84 781 -353 1388 -820 1855 -554 554 -1351 883 -2410 995 -368
38 -344 38 -3510 42 -1703 2 -3099 1 -3103 -3z m6343 -1477 c619 -83 1005
-253 1314 -578 244 -257 394 -587 462 -1019 22 -139 31 -605 15 -779 -46 -498
-187 -879 -427 -1153 -271 -309 -756 -537 -1359 -638 -333 -55 -255 -53 -2547
-57 l-2118 -4 0 2126 0 2126 2268 -4 c2057 -3 2279 -5 2392 -20z"/>
</g>
</svg>
